<svg xmlns="http://www.w3.org/2000/svg" width="24" height="24" viewBox="-1 -1 26 26" fill="none">
  <path d="M22 16.92v3a2 2 0 0 1-2.18 2
           19.86 19.86 0 0 1-8.63-3.07
           19.5 19.5 0 0 1-6-6
           19.86 19.86 0 0 1-3.07-8.63
           A2 2 0 0 1 4.11 2h3
           a2 2 0 0 1 2 1.72c.12.86.31 1.7.57 2.5
           a2 2 0 0 1-.45 2.11L8 9.91
           a16 16 0 0 0 6 6l1.27-1.27
           a2 2 0 0 1 2.11-.45c.8.26 1.64.45 2.5.57
           a2 2 0 0 1 1.72 2.02z"
        transform="matrix(0.72 0 0 0.72 3.36 3.36)"
        stroke="#6e7a86" stroke-width="2" stroke-linecap="round" stroke-linejoin="round"/>
</svg>




