<svg xmlns="http://www.w3.org/2000/svg" width="160" height="160" viewBox="0 0 160 160" fill="none">
  <g stroke="#8fb59a" stroke-width="1.5" stroke-linecap="round" stroke-linejoin="round" opacity="0.35">
    <path d="M18 24h32a6 6 0 0 1 6 6v16a6 6 0 0 1-6 6H36l-10 8v-8h-8a6 6 0 0 1-6-6V30a6 6 0 0 1 6-6z"/>
    <path d="M106 26l32 12-32 12-6-10 6-14z"/>
    <path d="M34 96c0-6 8-8 12-2 4-6 12-4 12 2 0 8-12 14-12 14S34 104 34 96z"/>
    <path d="M118 92l4 8 9 1-6 6 2 9-9-4-8 4 2-9-6-6 9-1z"/>
    <circle cx="82" cy="126" r="10"/>
    <path d="M82 122v8M78 126h8"/>
  </g>
</svg>
